<group>
loop_mode=no_loop
ampeg_release=0.250

<region>
sample=BassSlap.En0.wav
pitch_keycenter=28
lokey=0
hikey=28
tune=0

<region>
sample=BassSlap.Fn0.wav
pitch_keycenter=29
lokey=29
hikey=30
tune=0

<region>
sample=BassSlap.Gn0.wav
pitch_keycenter=31
lokey=31
hikey=32
tune=0

<region>
sample=BassSlap.An0.wav
pitch_keycenter=33
lokey=33
hikey=34
tune=0

<region>
sample=BassSlap.Bn0.wav
pitch_keycenter=35
lokey=35
hikey=35
tune=0

<region>
sample=BassSlap.Cn1.wav
pitch_keycenter=36
lokey=36
hikey=37
tune=0

<region>
sample=BassSlap.Dn1.wav
pitch_keycenter=38
lokey=38
hikey=39
tune=0

<region>
sample=BassSlap.En1.wav
pitch_keycenter=40
lokey=40
hikey=40
tune=0

<region>
sample=BassSlap.Fn1.wav
pitch_keycenter=41
lokey=41
hikey=42
tune=0

<region>
sample=BassSlap.Gn1.wav
pitch_keycenter=43
lokey=43
hikey=44
tune=0

<region>
sample=BassSlap.An1.wav
pitch_keycenter=45
lokey=45
hikey=46
tune=0

<region>
sample=Bass.Bn1.wav
pitch_keycenter=47
lokey=47
hikey=47
tune=0

<region>
sample=BassSlap.Cn2.wav
pitch_keycenter=48
lokey=48
hikey=49
tune=0

<region>
sample=BassSlap.Dn2.wav
pitch_keycenter=50
lokey=50
hikey=51
tune=0

<region>
sample=BassSlap.En2.wav
pitch_keycenter=52
lokey=52
hikey=52
tune=0

<region>
sample=BassSlap.Fn2.wav
pitch_keycenter=53
lokey=53
hikey=54
tune=0

<region>
sample=BassSlap.Gn2.wav
pitch_keycenter=55
lokey=55
hikey=56
tune=0

<region>
sample=BassSlap.An2.wav
pitch_keycenter=57
lokey=57
hikey=58
tune=0

<region>
sample=BassSlap.Bn2.wav
pitch_keycenter=59
lokey=59
hikey=59
tune=0

<region>
sample=BassSlap.Cn3.wav
pitch_keycenter=60
lokey=60
hikey=127
tune=0


